<?xml version="1.0" encoding="UTF-8"?>
<svg id="Layer_1" xmlns="http://www.w3.org/2000/svg" version="1.1" viewBox="0 0 715.6 663.3">
  <!-- Generator: Adobe Illustrator 29.8.1, SVG Export Plug-In . SVG Version: 2.1.1 Build 2)  -->
  <defs>
    <style>
      .st0, .st1 {
        fill: #fff;
      }

      .st0, .st2 {
        stroke: #777;
        stroke-linecap: round;
        stroke-miterlimit: 10;
        stroke-width: 31px;
      }

      .st2 {
        fill: #777;
      }
    </style>
  </defs>
  <polyline class="st2" points="360 94 360 467 28.4 467 28.4 16.5 282.4 16.5"/>
  <g>
    <path class="st1" d="M45.5,358.5c0-55,27.4-82.6,82.3-82.6s25.3,2,39.7,6.1c2.5.8,4.2,1.7,5.1,2.5.4.8.7,1.5.7,2.1s-1.1,6.9-3.3,18.9c-.9,4.3-2,6.4-3.3,6.4s-2.2-.8-4.4-2.3c-2.2-1.5-4.5-3.2-7.1-5.1-2.6-1.9-6.4-3.6-11.4-5.1-5-1.5-10.4-2.3-16.2-2.3-33.6,0-50.4,20.4-50.4,61.1s.8,17,2.3,24c1.6,7,4.2,13.4,7.8,19.3,3.6,5.9,8.9,10.4,15.8,13.6,6.9,3.2,15.4,4.8,25.3,4.8s13.7-.8,19.3-2.3,9.6-3.2,12-5c2.5-1.8,4.7-3.5,6.8-5,2.1-1.5,3.8-2.3,5.1-2.3s.6,0,.8.1c.2,0,.4.2.7.5s.4.5.4.7c0,.2.2.6.3,1,.1.5.3.9.3,1.3,0,.4.1.9.2,1.5,0,.6.1,1.1.2,1.6,0,.5.1,1.1.2,1.9,0,.8.1,1.5.1,1.9.1,1.8.3,3.4.4,4.8.1,1.4.3,2.3.3,2.8,0,.5.1.9.1,1.3v.9c0,.7,0,1.3-.2,1.7-.2.4-.5.9-1,1.4-.5.5-.9.8-1,.9-.2.1-.7.4-1.6.8l-1.6.8c-7.3,3.9-13.9,6.5-20,7.9-6,1.3-13.8,2-23.3,2-54.6,0-81.9-27.5-81.9-82.6Z"/>
    <path class="st1" d="M194.9,287.1c0-4,2.6-6,7.8-6h12.3c1,0,2,0,3,.2,1,.2,1.8.3,2.6.4.7.2,1.4.5,2.1,1,.7.5,1.2.9,1.7,1.1.4.2.9.7,1.4,1.5.5.7.9,1.2,1.1,1.5s.6.9,1,1.9c.4,1,.7,1.6.7,1.8,0,.1.3.8.7,2,.4,1.2.7,1.8.7,2l41.7,113.6c1.5-5.5,15.4-43.2,41.6-113,1.1-2.9,1.8-5,2.3-6.2.4-1.2,1.2-2.5,2.4-4,1.2-1.5,2.6-2.5,4.4-3,1.7-.5,3.9-.8,6.6-.8h9.4c5.1,0,7.6,2,7.6,5.9s-.3,2.2-.9,3.9l-49.3,131.4c-.9,2.4-1.5,4.1-1.9,5.1-.4,1-1.1,2.4-2.3,4s-2.5,2.8-4.2,3.5c-1.7.7-3.9,1-6.6,1h-20.3c-1.6,0-3.2-.1-4.6-.3-1.4-.2-2.6-.7-3.6-1.3-1-.7-1.7-1.2-2.3-1.5-.6-.3-1.2-1.1-1.9-2.3-.7-1.3-1.1-2-1.3-2.3-.2-.3-.6-1.3-1.3-3-.6-1.7-1-2.6-1-2.7l-48.7-131.3c-.6-1.8-.9-3.1-.9-4Z"/>
  </g>
  <polyline class="st0" points="360 93.2 283.3 93.2 283.3 16.5"/>
</svg>