<?xml version="1.0" encoding="UTF-8"?>
<svg id="Layer_1" xmlns="http://www.w3.org/2000/svg" version="1.1" viewBox="0 0 319.4 122">
  <!-- Generator: Adobe Illustrator 29.8.1, SVG Export Plug-In . SVG Version: 2.1.1 Build 2)  -->
  <defs>
    <style>
      .st0 {
        fill: #fff;
      }
    </style>
  </defs>
  <g>
    <path class="st0" d="M76.7,80c.1.6,0,.8-.5,1.1l-2.2,1c-.4.2-.7.1-1.2-.4l-6.7-7.2c-1.6-1.6-3.8-3.5-7.4-3.5s-7.1,2.4-7.1,6.5c.2,4.2,1.7,5.4,10.6,7.8,5.9,1.6,8.8,2.4,12.4,6.2,3.1,3.1,3.8,6,3.8,10.2,0,10.7-8.4,18.4-21.5,18.4s-12.6-2.4-14.1-3.5c-.5-.4-.6-.8-.7-1.6l-1.6-11.5c0-.6.4-.8.8-1l2.2-.6c.4-.1.6,0,.8.5l4.8,7.1c2.2,3.1,4.9,6.1,10.4,6.1s7.1-3.1,7.1-7.3-3.5-6.4-11.3-8.8c-8.5-2.5-14.6-6.6-14.6-15.3s1.7-10.3,6.2-13.7c4.8-3.5,8.2-4.3,13.2-4.3s10.4,1.4,12.6,2.5c1.8.8,2,1.4,2.2,2.3l1.7,8.9Z"/>
    <path class="st0" d="M191.3,117.8c0,.5-.1,1-.8,1-1.1,0-3.4-.4-13.8-.4s-10.7.4-12,.4-1-.5-1-1.1v-2.3c0-.8.1-1.2,1-1.2h.4c1.3,0,2-1.8,1.1-3.5l-6.7-11.1c-4.6,5-7.3,10.4-8,11.7-1,1.6-.5,2.9,2.2,2.9h1.4c.5,0,.6.5.6,1v2.6c0,.5-.1,1-.8,1-1.1,0-4.2-.4-10.1-.4s-8.5.4-9.7.4-1.1-.5-1.1-1.3v-2.2c0-.6.1-1.1,1-1.1h1.9c1.2,0,3.1-.5,5.3-1.9,2.5-1.6,12.4-13.8,14.7-16.9-5.8-9.2-13-19.2-15-21.5-1.1-1.2-2.8-1.7-4.1-1.7h-1.7c-.7,0-.8-.5-.8-.8v-2.6c0-.8.1-1.1,1-1.1s4.2.4,14.1.4,10.1-.4,11.2-.4.7.4.7,1.1v2.3c0,.7-.1,1.1-.6,1.1h-.8c-1.3,0-1.2,2.2-.1,3.8l5.6,9.4,5.8-7.9c1.9-2.6,1.3-5.3-1.1-5.3h-1.4c-.6,0-.7-.5-.7-1v-2.5c0-.7.1-1,.6-1,1.4,0,4.2.4,10.4.4s7.7-.4,8.5-.4,1.1.5,1.1,1.2v2.4c0,.7-.1,1-1,1h-1.4c-1.3,0-3.7.2-5.2,1.8-1.2,1.3-7.6,7.4-13,15.3,4.7,6.4,10.6,16.5,15.9,22.5,1.4,1.7,2.8,2.5,4.3,2.5h1.9c.5,0,.6.2.6,1v2.6h0Z"/>
    <path class="st0" d="M198.5,111.3c-4.6-5-6.4-11.4-6.4-19s3-14.3,10.3-19.9c6.1-4.8,12.2-6.1,17.9-6.1,8.3,0,13.9,2.5,19.3,7.6,5.9,5.3,8.3,11.8,8.3,19.1s-3,13.7-7.7,18.7c-5.8,6-12.7,8.4-20.9,8.4-8.8,0-14.8-1.8-20.9-8.8ZM229.7,92.1c0-13.9-4.8-20.8-10.1-20.8s-4.9.8-6.5,3.2c-2.4,3.7-4,8.9-4,18.6s.6,11.5,3,16.7c1.6,3.2,3.5,5.2,7.9,5.2,6.6,0,9.6-9.7,9.6-22.9Z"/>
    <path class="st0" d="M275.4,72.9h1c1.3-1.6,3.5-3.1,5.8-4.3,2.6-1.4,5.3-2.3,9.2-2.3s9.2.5,12.4,3.4c5,4.7,5.4,7.7,5.4,13.7v12.7c0,4.1-.2,9.7-.5,13.9-.1,3.6,1.8,4.2,2.9,4.2h3.2c1.1,0,1.3.4,1.3,1.1v2.2c0,.8-.2,1.3-1,1.3s-4.6-.4-14.2-.4-11.8.4-12.6.4-1-.4-1-1.3v-2.2c0-.8.4-1.1,1.6-1.1h1.3c.8,0,1.9-.6,2.2-2.8.5-3.1.7-7,.7-12.5v-12.9c0-4.6-.4-7.7-2.9-10-2.2-1.9-3.8-2.2-5.9-2.2s-3.7.6-6.1,2.4c-1.4,1.1-2.4,4.3-2.4,9.2l-.2,24.6c0,2.2.8,4,1.9,4h1.6c1,0,1.2.4,1.2,1.2v2.3c0,.7-.2,1.1-.8,1.1s-4.1-.4-12-.4-12.4.4-13.1.4-.8-.4-.8-1.1v-2.4c0-.7.2-1.1,1.2-1.1h1.8c1.3,0,3.4-.4,3.4-2.4v-26.7c0-3.6-2-5.6-4.8-7l-1.1-.5c-.7-.4-.8-.8-.8-1.3v-1.1c0-.6.5-1,1.1-1.2l15.4-7c1-.4,1.8-.8,2.8-.8s1.4.6,1.7,1.4l1.3,5.2Z"/>
  </g>
  <path class="st0" d="M112.8,80.1c0-2.4-.2-5.2-1.8-6.6-1.2-1.1-3.1-1.4-5-1.4s-4.2.5-6.4,1.9c-1.8,1.2-.4,3.2-.4,7.1s-3,6.8-7.8,6.8-5.2-1.7-5.2-4.3.8-6.2,3.4-8.4c5-4.6,13.3-8.9,23.1-8.9s9.7,1.2,12.3,3.5c2.6,2.4,3.4,5.9,3.4,10.2l.2,23.9c.1,6.2,1,8.5,3.5,9.4,1,.4,2.8.9,4.2.9.9,0,4.4-.4,6.3-.6l1.3,4.1c-2.5.7-5.5.7-7,.9-4.6.6-6.5,1.5-11.1,1.5s-9.1-1.7-11.4-7.3h-.6c-3,2.8-5.5,4.4-10.3,6.2-2.4.8-5.2,1.1-8.6,1.1s-7.9-4.6-7.9-11,2.5-10.8,10.3-14.7c9.4-4.4,12.4-5.8,15.5-7.9v-6.4h0ZM112.9,91.3c-5.9,3.4-10.8,5.2-10.8,13.5s2.5,7.8,5.2,7.9c3.2-.2,5.6-3.2,5.6-4.3v-17.1Z"/>
  <g>
    <path class="st0" d="M38,27.3v15c0,7.1-.4,19.9-1.8,26.5-2.2,10.6-13.9,20.2-24.7,20.2s-10.4-2.5-10.4-7.2,2.5-7,6.1-7,5.6,2.5,6.7,4.6c1.4,2.6,2.8,3.4,4.4,3.4s3.1-2.4,3.4-7c.5-9.5.5-19.7.4-28.2l-.4-24.1c-.1-5-1.3-6.1-6-8l-1.2-.5c-.5-.2-.7-.5-.7-.8v-1.7c0-.4.4-.7,1-1l19-6.5c1.6-.6,2.8-.7,3.6-.7s1.4.8,1.2,2c-.2,1.1-.5,9.5-.5,21Z"/>
    <path class="st0" d="M175.7,56.4c-7.2,0-11.5.4-12.4.4s-1-.4-1-1.4v-2c0-.8.4-1.1.7-1.1h1.1c.8,0,2.3-.6,2.4-2.3.2-2.8.6-7.1.6-11.5v-11.5c0-7.4-.4-10-1.9-11.7-1.9-2.2-3.1-2.9-5.9-2.9s-5.8,2.5-7.2,3.8c-1.8,2-1.8,5.9-1.8,7.6v23.8c0,3.5.7,4.7,2,4.7h2.2c1.1,0,1.3.2,1.3,1.1v2.2c0,1-.2,1.3-.8,1.3s-4-.4-11.3-.4-13,.4-13.7.4-.8-.4-.8-1.2v-2.2c0-1,.1-1.2,1.2-1.2h1.7c1.7,0,2.9-1.6,2.9-8.5v-17.8c0-8.3-1.2-11-2.6-12.4-1.1-1.1-3-1.4-5.6-1.4s-5.2,1.7-6.6,3.7c-1.6,2.4-2,5.2-1.9,9.7v19.3c0,6.1,1.2,7.3,2.5,7.3h1.1c1.1,0,1.2.2,1.2,1.1v2.2c0,.8-.1,1.3-1,1.3s-4.3-.4-12.8-.4-11.9.4-12.8.4-1-.2-1-1.1v-2.4c0-1,.1-1.1,1.4-1.1h3.4c1.2,0,2.2-1.3,2.3-3,.1-2,.1-5,.1-8.2v-15.1c0-5.3-.8-7.2-3.8-9l-2.4-1.4c-.6-.4-.8-.6-.8-1v-1.4c0-.4.2-.8.7-1.1l15.5-6.8c1.1-.5,1.9-.8,2.8-.8s1.4.4,1.7,1.6l1,6.8h.6c3.4-4.7,9.5-8.4,17.1-8.4s11.4,3.5,14.5,8.4h.6c4.1-4.8,10-8,16.1-8s7.9.7,11.6,4.6c3.5,3.5,5.2,4.6,5.2,16.5v8.6c0,4.1-.4,10.7-.5,13.2-.1,3.4,3.1,4.6,4.8,4.7,1.2,0,3,.1,4,.1s2.3,0,3.6-.2c1.4,0,2.2-.5,2.3-2.4.2-3.6.2-7.3.2-10.7l-.2-16.8c0-3.4-.7-5.8-5.8-7.6-1.3-.5-1.4-1-1.4-1.7v-1.3c0-.4.2-.6,1.3-1l17.9-5.8c1.3-.5,2.4-.7,3.2-.7s1.3.6,1.2,1.4c-.2,2-.2,9.6-.2,20.2v12.8c0,4.7,0,9,.1,10.3.2,2.3.8,3.1,2.2,3.1h3c1,0,1.2.4,1.2,1.1v2.3c0,.8-.2,1.2-1.1,1.2s-5.1-.4-15.6-.4c-7,0-18.6,0-27.4,0Z"/>
    <path class="st0" d="M238.9,26.5v3.2c0,12.5,7.1,18.6,15.9,18.6s10.7-2.8,13.1-6.6c.2-.6.7-.7,1.2-.4l2,1.1c.5.2.8.8-.2,2.9-2.2,4.4-10,12.7-21.3,12.7s-14.1-1.3-18-5.6c-6.1-6.6-8.2-11.3-8.3-20.7,0-3.4,0-9.7,5.4-17.7,4.3-6.4,11.7-9.8,20.9-9.8,19.5,0,20.5,18.6,20.5,20.5s-1.1,1.7-3.7,1.7h-27.5ZM253.3,21.9c2.6,0,3.8-.6,3.8-2.4,0-5.3-2.2-10.4-5.9-10.4-5.6,0-8.6,4.4-9.5,12.8h11.5Z"/>
    <path class="st0" d="M73,18.1c0-2.4-.2-5.2-1.8-6.6-1.2-1.1-3.1-1.4-5-1.4s-4.2.5-6.4,1.9c-1.8,1.2-.4,3.2-.4,7.1s-3,6.8-7.8,6.8-5.2-1.7-5.2-4.3.8-6.2,3.4-8.4c5-4.6,13.3-8.9,23.1-8.9s9.7,1.2,12.3,3.5c2.6,2.4,3.4,5.9,3.4,10.2l.2,23.9c.1,6.2,1,8.5,3.5,9.4,1,.4,2.8.9,4.2.9.9,0,4.4-.4,6.3-.6l1.3,4.1c-2.5.7-5.5.7-7,.9-4.6.6-6.5,1.5-11.1,1.5s-9.1-1.7-11.4-7.3h-.6c-3,2.8-5.5,4.4-10.3,6.2-2.4.8-5.2,1.1-8.6,1.1s-7.9-4.6-7.9-11,2.5-10.8,10.3-14.6c9.4-4.4,12.4-5.8,15.5-7.9v-6.4h0ZM73.1,29.2c-5.9,3.4-10.8,5.2-10.8,13.5s2.5,7.8,5.2,7.9c3.2-.2,5.6-3.2,5.6-4.3,0,0,0-17.1,0-17.1Z"/>
  </g>
</svg>