<?xml version="1.0" encoding="utf-8" standalone="no"?>
<!DOCTYPE svg PUBLIC "-//W3C//DTD SVG 1.1//EN"
  "http://www.w3.org/Graphics/SVG/1.1/DTD/svg11.dtd">
<!-- Created with matplotlib (https://matplotlib.org/) -->
<svg height="310.99625pt" version="1.1" viewBox="0 0 755.668125 310.99625" width="755.668125pt" xmlns="http://www.w3.org/2000/svg" xmlns:xlink="http://www.w3.org/1999/xlink">
 <defs>
  <style type="text/css">
*{stroke-linecap:butt;stroke-linejoin:round;}
  </style>
 </defs>
 <g id="figure_1">
  <g id="patch_1">
   <path d="M 0 310.99625 
L 755.668125 310.99625 
L 755.668125 0 
L 0 0 
z
" style="fill:none;"/>
  </g>
  <g id="axes_1">
   <g id="patch_2">
    <path d="M 71.668125 251.9975 
L 376.031761 251.9975 
L 376.031761 34.5575 
L 71.668125 34.5575 
z
" style="fill:none;"/>
   </g>
   <g id="matplotlib.axis_1">
    <g id="xtick_1">
     <g id="line2d_1">
      <defs>
       <path d="M 0 0 
L 0 3.5 
" id="m2612b18692" style="stroke:#000000;stroke-width:0.8;"/>
      </defs>
      <g>
       <use style="stroke:#000000;stroke-width:0.8;" x="90.891092" xlink:href="#m2612b18692" y="251.9975"/>
      </g>
     </g>
     <g id="text_1">
      <!-- Jan -->
      <defs>
       <path d="M 9.8125 72.90625 
L 19.671875 72.90625 
L 19.671875 5.078125 
Q 19.671875 -8.109375 14.671875 -14.0625 
Q 9.671875 -20.015625 -1.421875 -20.015625 
L -5.171875 -20.015625 
L -5.171875 -11.71875 
L -2.09375 -11.71875 
Q 4.4375 -11.71875 7.125 -8.046875 
Q 9.8125 -4.390625 9.8125 5.078125 
z
" id="DejaVuSans-74"/>
       <path d="M 34.28125 27.484375 
Q 23.390625 27.484375 19.1875 25 
Q 14.984375 22.515625 14.984375 16.5 
Q 14.984375 11.71875 18.140625 8.90625 
Q 21.296875 6.109375 26.703125 6.109375 
Q 34.1875 6.109375 38.703125 11.40625 
Q 43.21875 16.703125 43.21875 25.484375 
L 43.21875 27.484375 
z
M 52.203125 31.203125 
L 52.203125 0 
L 43.21875 0 
L 43.21875 8.296875 
Q 40.140625 3.328125 35.546875 0.953125 
Q 30.953125 -1.421875 24.3125 -1.421875 
Q 15.921875 -1.421875 10.953125 3.296875 
Q 6 8.015625 6 15.921875 
Q 6 25.140625 12.171875 29.828125 
Q 18.359375 34.515625 30.609375 34.515625 
L 43.21875 34.515625 
L 43.21875 35.40625 
Q 43.21875 41.609375 39.140625 45 
Q 35.0625 48.390625 27.6875 48.390625 
Q 23 48.390625 18.546875 47.265625 
Q 14.109375 46.140625 10.015625 43.890625 
L 10.015625 52.203125 
Q 14.9375 54.109375 19.578125 55.046875 
Q 24.21875 56 28.609375 56 
Q 40.484375 56 46.34375 49.84375 
Q 52.203125 43.703125 52.203125 31.203125 
z
" id="DejaVuSans-97"/>
       <path d="M 54.890625 33.015625 
L 54.890625 0 
L 45.90625 0 
L 45.90625 32.71875 
Q 45.90625 40.484375 42.875 44.328125 
Q 39.84375 48.1875 33.796875 48.1875 
Q 26.515625 48.1875 22.3125 43.546875 
Q 18.109375 38.921875 18.109375 30.90625 
L 18.109375 0 
L 9.078125 0 
L 9.078125 54.6875 
L 18.109375 54.6875 
L 18.109375 46.1875 
Q 21.34375 51.125 25.703125 53.5625 
Q 30.078125 56 35.796875 56 
Q 45.21875 56 50.046875 50.171875 
Q 54.890625 44.34375 54.890625 33.015625 
z
" id="DejaVuSans-110"/>
      </defs>
      <g transform="translate(80.100154 270.135313)scale(0.14 -0.14)">
       <use xlink:href="#DejaVuSans-74"/>
       <use x="29.492188" xlink:href="#DejaVuSans-97"/>
       <use x="90.771484" xlink:href="#DejaVuSans-110"/>
      </g>
     </g>
    </g>
    <g id="xtick_2">
     <g id="line2d_2">
      <g>
       <use style="stroke:#000000;stroke-width:0.8;" x="190.209752" xlink:href="#m2612b18692" y="251.9975"/>
      </g>
     </g>
     <g id="text_2">
      <!-- Feb -->
      <defs>
       <path d="M 9.8125 72.90625 
L 51.703125 72.90625 
L 51.703125 64.59375 
L 19.671875 64.59375 
L 19.671875 43.109375 
L 48.578125 43.109375 
L 48.578125 34.8125 
L 19.671875 34.8125 
L 19.671875 0 
L 9.8125 0 
z
" id="DejaVuSans-70"/>
       <path d="M 56.203125 29.59375 
L 56.203125 25.203125 
L 14.890625 25.203125 
Q 15.484375 15.921875 20.484375 11.0625 
Q 25.484375 6.203125 34.421875 6.203125 
Q 39.59375 6.203125 44.453125 7.46875 
Q 49.3125 8.734375 54.109375 11.28125 
L 54.109375 2.78125 
Q 49.265625 0.734375 44.1875 -0.34375 
Q 39.109375 -1.421875 33.890625 -1.421875 
Q 20.796875 -1.421875 13.15625 6.1875 
Q 5.515625 13.8125 5.515625 26.8125 
Q 5.515625 40.234375 12.765625 48.109375 
Q 20.015625 56 32.328125 56 
Q 43.359375 56 49.78125 48.890625 
Q 56.203125 41.796875 56.203125 29.59375 
z
M 47.21875 32.234375 
Q 47.125 39.59375 43.09375 43.984375 
Q 39.0625 48.390625 32.421875 48.390625 
Q 24.90625 48.390625 20.390625 44.140625 
Q 15.875 39.890625 15.1875 32.171875 
z
" id="DejaVuSans-101"/>
       <path d="M 48.6875 27.296875 
Q 48.6875 37.203125 44.609375 42.84375 
Q 40.53125 48.484375 33.40625 48.484375 
Q 26.265625 48.484375 22.1875 42.84375 
Q 18.109375 37.203125 18.109375 27.296875 
Q 18.109375 17.390625 22.1875 11.75 
Q 26.265625 6.109375 33.40625 6.109375 
Q 40.53125 6.109375 44.609375 11.75 
Q 48.6875 17.390625 48.6875 27.296875 
z
M 18.109375 46.390625 
Q 20.953125 51.265625 25.265625 53.625 
Q 29.59375 56 35.59375 56 
Q 45.5625 56 51.78125 48.09375 
Q 58.015625 40.1875 58.015625 27.296875 
Q 58.015625 14.40625 51.78125 6.484375 
Q 45.5625 -1.421875 35.59375 -1.421875 
Q 29.59375 -1.421875 25.265625 0.953125 
Q 20.953125 3.328125 18.109375 8.203125 
L 18.109375 0 
L 9.078125 0 
L 9.078125 75.984375 
L 18.109375 75.984375 
z
" id="DejaVuSans-98"/>
      </defs>
      <g transform="translate(177.438033 270.135313)scale(0.14 -0.14)">
       <use xlink:href="#DejaVuSans-70"/>
       <use x="57.441406" xlink:href="#DejaVuSans-101"/>
       <use x="118.964844" xlink:href="#DejaVuSans-98"/>
      </g>
     </g>
    </g>
    <g id="xtick_3">
     <g id="line2d_3">
      <g>
       <use style="stroke:#000000;stroke-width:0.8;" x="279.916929" xlink:href="#m2612b18692" y="251.9975"/>
      </g>
     </g>
     <g id="text_3">
      <!-- Mar -->
      <defs>
       <path d="M 9.8125 72.90625 
L 24.515625 72.90625 
L 43.109375 23.296875 
L 61.8125 72.90625 
L 76.515625 72.90625 
L 76.515625 0 
L 66.890625 0 
L 66.890625 64.015625 
L 48.09375 14.015625 
L 38.1875 14.015625 
L 19.390625 64.015625 
L 19.390625 0 
L 9.8125 0 
z
" id="DejaVuSans-77"/>
       <path d="M 41.109375 46.296875 
Q 39.59375 47.171875 37.8125 47.578125 
Q 36.03125 48 33.890625 48 
Q 26.265625 48 22.1875 43.046875 
Q 18.109375 38.09375 18.109375 28.8125 
L 18.109375 0 
L 9.078125 0 
L 9.078125 54.6875 
L 18.109375 54.6875 
L 18.109375 46.1875 
Q 20.953125 51.171875 25.484375 53.578125 
Q 30.03125 56 36.53125 56 
Q 37.453125 56 38.578125 55.875 
Q 39.703125 55.765625 41.0625 55.515625 
z
" id="DejaVuSans-114"/>
      </defs>
      <g transform="translate(266.709898 270.135313)scale(0.14 -0.14)">
       <use xlink:href="#DejaVuSans-77"/>
       <use x="86.279297" xlink:href="#DejaVuSans-97"/>
       <use x="147.558594" xlink:href="#DejaVuSans-114"/>
      </g>
     </g>
    </g>
    <g id="xtick_4">
     <g id="line2d_4">
      <defs>
       <path d="M 0 0 
L 0 2 
" id="m129951f369" style="stroke:#000000;stroke-width:0.6;"/>
      </defs>
      <g>
       <use style="stroke:#000000;stroke-width:0.6;" x="113.317886" xlink:href="#m129951f369" y="251.9975"/>
      </g>
     </g>
     <g id="text_4">
      <!-- 8 -->
      <defs>
       <path d="M 31.78125 34.625 
Q 24.75 34.625 20.71875 30.859375 
Q 16.703125 27.09375 16.703125 20.515625 
Q 16.703125 13.921875 20.71875 10.15625 
Q 24.75 6.390625 31.78125 6.390625 
Q 38.8125 6.390625 42.859375 10.171875 
Q 46.921875 13.96875 46.921875 20.515625 
Q 46.921875 27.09375 42.890625 30.859375 
Q 38.875 34.625 31.78125 34.625 
z
M 21.921875 38.8125 
Q 15.578125 40.375 12.03125 44.71875 
Q 8.5 49.078125 8.5 55.328125 
Q 8.5 64.0625 14.71875 69.140625 
Q 20.953125 74.21875 31.78125 74.21875 
Q 42.671875 74.21875 48.875 69.140625 
Q 55.078125 64.0625 55.078125 55.328125 
Q 55.078125 49.078125 51.53125 44.71875 
Q 48 40.375 41.703125 38.8125 
Q 48.828125 37.15625 52.796875 32.3125 
Q 56.78125 27.484375 56.78125 20.515625 
Q 56.78125 9.90625 50.3125 4.234375 
Q 43.84375 -1.421875 31.78125 -1.421875 
Q 19.734375 -1.421875 13.25 4.234375 
Q 6.78125 9.90625 6.78125 20.515625 
Q 6.78125 27.484375 10.78125 32.3125 
Q 14.796875 37.15625 21.921875 38.8125 
z
M 18.3125 54.390625 
Q 18.3125 48.734375 21.84375 45.5625 
Q 25.390625 42.390625 31.78125 42.390625 
Q 38.140625 42.390625 41.71875 45.5625 
Q 45.3125 48.734375 45.3125 54.390625 
Q 45.3125 60.0625 41.71875 63.234375 
Q 38.140625 66.40625 31.78125 66.40625 
Q 25.390625 66.40625 21.84375 63.234375 
Q 18.3125 60.0625 18.3125 54.390625 
z
" id="DejaVuSans-56"/>
      </defs>
      <g transform="translate(110.136636 265.595938)scale(0.1 -0.1)">
       <use xlink:href="#DejaVuSans-56"/>
      </g>
     </g>
    </g>
    <g id="xtick_5">
     <g id="line2d_5">
      <g>
       <use style="stroke:#000000;stroke-width:0.6;" x="135.74468" xlink:href="#m129951f369" y="251.9975"/>
      </g>
     </g>
     <g id="text_5">
      <!-- 15 -->
      <defs>
       <path d="M 12.40625 8.296875 
L 28.515625 8.296875 
L 28.515625 63.921875 
L 10.984375 60.40625 
L 10.984375 69.390625 
L 28.421875 72.90625 
L 38.28125 72.90625 
L 38.28125 8.296875 
L 54.390625 8.296875 
L 54.390625 0 
L 12.40625 0 
z
" id="DejaVuSans-49"/>
       <path d="M 10.796875 72.90625 
L 49.515625 72.90625 
L 49.515625 64.59375 
L 19.828125 64.59375 
L 19.828125 46.734375 
Q 21.96875 47.46875 24.109375 47.828125 
Q 26.265625 48.1875 28.421875 48.1875 
Q 40.625 48.1875 47.75 41.5 
Q 54.890625 34.8125 54.890625 23.390625 
Q 54.890625 11.625 47.5625 5.09375 
Q 40.234375 -1.421875 26.90625 -1.421875 
Q 22.3125 -1.421875 17.546875 -0.640625 
Q 12.796875 0.140625 7.71875 1.703125 
L 7.71875 11.625 
Q 12.109375 9.234375 16.796875 8.0625 
Q 21.484375 6.890625 26.703125 6.890625 
Q 35.15625 6.890625 40.078125 11.328125 
Q 45.015625 15.765625 45.015625 23.390625 
Q 45.015625 31 40.078125 35.4375 
Q 35.15625 39.890625 26.703125 39.890625 
Q 22.75 39.890625 18.8125 39.015625 
Q 14.890625 38.140625 10.796875 36.28125 
z
" id="DejaVuSans-53"/>
      </defs>
      <g transform="translate(129.38218 265.595938)scale(0.1 -0.1)">
       <use xlink:href="#DejaVuSans-49"/>
       <use x="63.623047" xlink:href="#DejaVuSans-53"/>
      </g>
     </g>
    </g>
    <g id="xtick_6">
     <g id="line2d_6">
      <g>
       <use style="stroke:#000000;stroke-width:0.6;" x="158.171474" xlink:href="#m129951f369" y="251.9975"/>
      </g>
     </g>
     <g id="text_6">
      <!-- 22 -->
      <defs>
       <path d="M 19.1875 8.296875 
L 53.609375 8.296875 
L 53.609375 0 
L 7.328125 0 
L 7.328125 8.296875 
Q 12.9375 14.109375 22.625 23.890625 
Q 32.328125 33.6875 34.8125 36.53125 
Q 39.546875 41.84375 41.421875 45.53125 
Q 43.3125 49.21875 43.3125 52.78125 
Q 43.3125 58.59375 39.234375 62.25 
Q 35.15625 65.921875 28.609375 65.921875 
Q 23.96875 65.921875 18.8125 64.3125 
Q 13.671875 62.703125 7.8125 59.421875 
L 7.8125 69.390625 
Q 13.765625 71.78125 18.9375 73 
Q 24.125 74.21875 28.421875 74.21875 
Q 39.75 74.21875 46.484375 68.546875 
Q 53.21875 62.890625 53.21875 53.421875 
Q 53.21875 48.921875 51.53125 44.890625 
Q 49.859375 40.875 45.40625 35.40625 
Q 44.1875 33.984375 37.640625 27.21875 
Q 31.109375 20.453125 19.1875 8.296875 
z
" id="DejaVuSans-50"/>
      </defs>
      <g transform="translate(151.808974 265.595938)scale(0.1 -0.1)">
       <use xlink:href="#DejaVuSans-50"/>
       <use x="63.623047" xlink:href="#DejaVuSans-50"/>
      </g>
     </g>
    </g>
    <g id="xtick_7">
     <g id="line2d_7">
      <g>
       <use style="stroke:#000000;stroke-width:0.6;" x="212.636546" xlink:href="#m129951f369" y="251.9975"/>
      </g>
     </g>
     <g id="text_7">
      <!-- 8 -->
      <g transform="translate(209.455296 265.595938)scale(0.1 -0.1)">
       <use xlink:href="#DejaVuSans-56"/>
      </g>
     </g>
    </g>
    <g id="xtick_8">
     <g id="line2d_8">
      <g>
       <use style="stroke:#000000;stroke-width:0.6;" x="235.06334" xlink:href="#m129951f369" y="251.9975"/>
      </g>
     </g>
     <g id="text_8">
      <!-- 15 -->
      <g transform="translate(228.70084 265.595938)scale(0.1 -0.1)">
       <use xlink:href="#DejaVuSans-49"/>
       <use x="63.623047" xlink:href="#DejaVuSans-53"/>
      </g>
     </g>
    </g>
    <g id="xtick_9">
     <g id="line2d_9">
      <g>
       <use style="stroke:#000000;stroke-width:0.6;" x="257.490135" xlink:href="#m129951f369" y="251.9975"/>
      </g>
     </g>
     <g id="text_9">
      <!-- 22 -->
      <g transform="translate(251.127635 265.595938)scale(0.1 -0.1)">
       <use xlink:href="#DejaVuSans-50"/>
       <use x="63.623047" xlink:href="#DejaVuSans-50"/>
      </g>
     </g>
    </g>
    <g id="xtick_10">
     <g id="line2d_10">
      <g>
       <use style="stroke:#000000;stroke-width:0.6;" x="302.343723" xlink:href="#m129951f369" y="251.9975"/>
      </g>
     </g>
     <g id="text_10">
      <!-- 8 -->
      <g transform="translate(299.162473 265.595938)scale(0.1 -0.1)">
       <use xlink:href="#DejaVuSans-56"/>
      </g>
     </g>
    </g>
    <g id="xtick_11">
     <g id="line2d_11">
      <g>
       <use style="stroke:#000000;stroke-width:0.6;" x="324.770517" xlink:href="#m129951f369" y="251.9975"/>
      </g>
     </g>
     <g id="text_11">
      <!-- 15 -->
      <g transform="translate(318.408017 265.595938)scale(0.1 -0.1)">
       <use xlink:href="#DejaVuSans-49"/>
       <use x="63.623047" xlink:href="#DejaVuSans-53"/>
      </g>
     </g>
    </g>
    <g id="xtick_12">
     <g id="line2d_12">
      <g>
       <use style="stroke:#000000;stroke-width:0.6;" x="347.197312" xlink:href="#m129951f369" y="251.9975"/>
      </g>
     </g>
     <g id="text_12">
      <!-- 22 -->
      <g transform="translate(340.834812 265.595938)scale(0.1 -0.1)">
       <use xlink:href="#DejaVuSans-50"/>
       <use x="63.623047" xlink:href="#DejaVuSans-50"/>
      </g>
     </g>
    </g>
    <g id="text_13">
     <!-- Date [+ DoW offset] -->
     <defs>
      <path d="M 19.671875 64.796875 
L 19.671875 8.109375 
L 31.59375 8.109375 
Q 46.6875 8.109375 53.6875 14.9375 
Q 60.6875 21.78125 60.6875 36.53125 
Q 60.6875 51.171875 53.6875 57.984375 
Q 46.6875 64.796875 31.59375 64.796875 
z
M 9.8125 72.90625 
L 30.078125 72.90625 
Q 51.265625 72.90625 61.171875 64.09375 
Q 71.09375 55.28125 71.09375 36.53125 
Q 71.09375 17.671875 61.125 8.828125 
Q 51.171875 0 30.078125 0 
L 9.8125 0 
z
" id="DejaVuSans-68"/>
      <path d="M 18.3125 70.21875 
L 18.3125 54.6875 
L 36.8125 54.6875 
L 36.8125 47.703125 
L 18.3125 47.703125 
L 18.3125 18.015625 
Q 18.3125 11.328125 20.140625 9.421875 
Q 21.96875 7.515625 27.59375 7.515625 
L 36.8125 7.515625 
L 36.8125 0 
L 27.59375 0 
Q 17.1875 0 13.234375 3.875 
Q 9.28125 7.765625 9.28125 18.015625 
L 9.28125 47.703125 
L 2.6875 47.703125 
L 2.6875 54.6875 
L 9.28125 54.6875 
L 9.28125 70.21875 
z
" id="DejaVuSans-116"/>
      <path id="DejaVuSans-32"/>
      <path d="M 8.59375 75.984375 
L 29.296875 75.984375 
L 29.296875 69 
L 17.578125 69 
L 17.578125 -6.203125 
L 29.296875 -6.203125 
L 29.296875 -13.1875 
L 8.59375 -13.1875 
z
" id="DejaVuSans-91"/>
      <path d="M 46 62.703125 
L 46 35.5 
L 73.1875 35.5 
L 73.1875 27.203125 
L 46 27.203125 
L 46 0 
L 37.796875 0 
L 37.796875 27.203125 
L 10.59375 27.203125 
L 10.59375 35.5 
L 37.796875 35.5 
L 37.796875 62.703125 
z
" id="DejaVuSans-43"/>
      <path d="M 30.609375 48.390625 
Q 23.390625 48.390625 19.1875 42.75 
Q 14.984375 37.109375 14.984375 27.296875 
Q 14.984375 17.484375 19.15625 11.84375 
Q 23.34375 6.203125 30.609375 6.203125 
Q 37.796875 6.203125 41.984375 11.859375 
Q 46.1875 17.53125 46.1875 27.296875 
Q 46.1875 37.015625 41.984375 42.703125 
Q 37.796875 48.390625 30.609375 48.390625 
z
M 30.609375 56 
Q 42.328125 56 49.015625 48.375 
Q 55.71875 40.765625 55.71875 27.296875 
Q 55.71875 13.875 49.015625 6.21875 
Q 42.328125 -1.421875 30.609375 -1.421875 
Q 18.84375 -1.421875 12.171875 6.21875 
Q 5.515625 13.875 5.515625 27.296875 
Q 5.515625 40.765625 12.171875 48.375 
Q 18.84375 56 30.609375 56 
z
" id="DejaVuSans-111"/>
      <path d="M 3.328125 72.90625 
L 13.28125 72.90625 
L 28.609375 11.28125 
L 43.890625 72.90625 
L 54.984375 72.90625 
L 70.3125 11.28125 
L 85.59375 72.90625 
L 95.609375 72.90625 
L 77.296875 0 
L 64.890625 0 
L 49.515625 63.28125 
L 33.984375 0 
L 21.578125 0 
z
" id="DejaVuSans-87"/>
      <path d="M 37.109375 75.984375 
L 37.109375 68.5 
L 28.515625 68.5 
Q 23.6875 68.5 21.796875 66.546875 
Q 19.921875 64.59375 19.921875 59.515625 
L 19.921875 54.6875 
L 34.71875 54.6875 
L 34.71875 47.703125 
L 19.921875 47.703125 
L 19.921875 0 
L 10.890625 0 
L 10.890625 47.703125 
L 2.296875 47.703125 
L 2.296875 54.6875 
L 10.890625 54.6875 
L 10.890625 58.5 
Q 10.890625 67.625 15.140625 71.796875 
Q 19.390625 75.984375 28.609375 75.984375 
z
" id="DejaVuSans-102"/>
      <path d="M 44.28125 53.078125 
L 44.28125 44.578125 
Q 40.484375 46.53125 36.375 47.5 
Q 32.28125 48.484375 27.875 48.484375 
Q 21.1875 48.484375 17.84375 46.4375 
Q 14.5 44.390625 14.5 40.28125 
Q 14.5 37.15625 16.890625 35.375 
Q 19.28125 33.59375 26.515625 31.984375 
L 29.59375 31.296875 
Q 39.15625 29.25 43.1875 25.515625 
Q 47.21875 21.78125 47.21875 15.09375 
Q 47.21875 7.46875 41.1875 3.015625 
Q 35.15625 -1.421875 24.609375 -1.421875 
Q 20.21875 -1.421875 15.453125 -0.5625 
Q 10.6875 0.296875 5.421875 2 
L 5.421875 11.28125 
Q 10.40625 8.6875 15.234375 7.390625 
Q 20.0625 6.109375 24.8125 6.109375 
Q 31.15625 6.109375 34.5625 8.28125 
Q 37.984375 10.453125 37.984375 14.40625 
Q 37.984375 18.0625 35.515625 20.015625 
Q 33.0625 21.96875 24.703125 23.78125 
L 21.578125 24.515625 
Q 13.234375 26.265625 9.515625 29.90625 
Q 5.8125 33.546875 5.8125 39.890625 
Q 5.8125 47.609375 11.28125 51.796875 
Q 16.75 56 26.8125 56 
Q 31.78125 56 36.171875 55.265625 
Q 40.578125 54.546875 44.28125 53.078125 
z
" id="DejaVuSans-115"/>
      <path d="M 30.421875 75.984375 
L 30.421875 -13.1875 
L 9.71875 -13.1875 
L 9.71875 -6.203125 
L 21.390625 -6.203125 
L 21.390625 69 
L 9.71875 69 
L 9.71875 75.984375 
z
" id="DejaVuSans-93"/>
     </defs>
     <g transform="translate(152.612912 293.684688)scale(0.14 -0.14)">
      <use xlink:href="#DejaVuSans-68"/>
      <use x="77.001953" xlink:href="#DejaVuSans-97"/>
      <use x="138.28125" xlink:href="#DejaVuSans-116"/>
      <use x="177.490234" xlink:href="#DejaVuSans-101"/>
      <use x="239.013672" xlink:href="#DejaVuSans-32"/>
      <use x="270.800781" xlink:href="#DejaVuSans-91"/>
      <use x="309.814453" xlink:href="#DejaVuSans-43"/>
      <use x="393.603516" xlink:href="#DejaVuSans-32"/>
      <use x="425.390625" xlink:href="#DejaVuSans-68"/>
      <use x="502.392578" xlink:href="#DejaVuSans-111"/>
      <use x="563.574219" xlink:href="#DejaVuSans-87"/>
      <use x="662.451172" xlink:href="#DejaVuSans-32"/>
      <use x="694.238281" xlink:href="#DejaVuSans-111"/>
      <use x="755.419922" xlink:href="#DejaVuSans-102"/>
      <use x="790.625" xlink:href="#DejaVuSans-102"/>
      <use x="825.830078" xlink:href="#DejaVuSans-115"/>
      <use x="877.929688" xlink:href="#DejaVuSans-101"/>
      <use x="939.453125" xlink:href="#DejaVuSans-116"/>
      <use x="978.662109" xlink:href="#DejaVuSans-93"/>
     </g>
    </g>
   </g>
   <g id="matplotlib.axis_2">
    <g id="ytick_1">
     <g id="line2d_13">
      <path clip-path="url(#p81e6260c5f)" d="M 71.668125 227.611706 
L 376.031761 227.611706 
" style="fill:none;stroke:#cccccc;stroke-linecap:square;stroke-width:0.8;"/>
     </g>
     <g id="line2d_14">
      <defs>
       <path d="M 0 0 
L -3.5 0 
" id="m5c138367a1" style="stroke:#000000;stroke-width:0.8;"/>
      </defs>
      <g>
       <use style="stroke:#000000;stroke-width:0.8;" x="71.668125" xlink:href="#m5c138367a1" y="227.611706"/>
      </g>
     </g>
     <g id="text_14">
      <!-- 0.50 -->
      <defs>
       <path d="M 31.78125 66.40625 
Q 24.171875 66.40625 20.328125 58.90625 
Q 16.5 51.421875 16.5 36.375 
Q 16.5 21.390625 20.328125 13.890625 
Q 24.171875 6.390625 31.78125 6.390625 
Q 39.453125 6.390625 43.28125 13.890625 
Q 47.125 21.390625 47.125 36.375 
Q 47.125 51.421875 43.28125 58.90625 
Q 39.453125 66.40625 31.78125 66.40625 
z
M 31.78125 74.21875 
Q 44.046875 74.21875 50.515625 64.515625 
Q 56.984375 54.828125 56.984375 36.375 
Q 56.984375 17.96875 50.515625 8.265625 
Q 44.046875 -1.421875 31.78125 -1.421875 
Q 19.53125 -1.421875 13.0625 8.265625 
Q 6.59375 17.96875 6.59375 36.375 
Q 6.59375 54.828125 13.0625 64.515625 
Q 19.53125 74.21875 31.78125 74.21875 
z
" id="DejaVuSans-48"/>
       <path d="M 10.6875 12.40625 
L 21 12.40625 
L 21 0 
L 10.6875 0 
z
" id="DejaVuSans-46"/>
      </defs>
      <g transform="translate(37.949375 232.170768)scale(0.12 -0.12)">
       <use xlink:href="#DejaVuSans-48"/>
       <use x="63.623047" xlink:href="#DejaVuSans-46"/>
       <use x="95.410156" xlink:href="#DejaVuSans-53"/>
       <use x="159.033203" xlink:href="#DejaVuSans-48"/>
      </g>
     </g>
    </g>
    <g id="ytick_2">
     <g id="line2d_15">
      <path clip-path="url(#p81e6260c5f)" d="M 71.668125 202.209836 
L 376.031761 202.209836 
" style="fill:none;stroke:#cccccc;stroke-linecap:square;stroke-width:0.8;"/>
     </g>
     <g id="line2d_16">
      <g>
       <use style="stroke:#000000;stroke-width:0.8;" x="71.668125" xlink:href="#m5c138367a1" y="202.209836"/>
      </g>
     </g>
     <g id="text_15">
      <!-- 0.75 -->
      <defs>
       <path d="M 8.203125 72.90625 
L 55.078125 72.90625 
L 55.078125 68.703125 
L 28.609375 0 
L 18.3125 0 
L 43.21875 64.59375 
L 8.203125 64.59375 
z
" id="DejaVuSans-55"/>
      </defs>
      <g transform="translate(37.949375 206.768899)scale(0.12 -0.12)">
       <use xlink:href="#DejaVuSans-48"/>
       <use x="63.623047" xlink:href="#DejaVuSans-46"/>
       <use x="95.410156" xlink:href="#DejaVuSans-55"/>
       <use x="159.033203" xlink:href="#DejaVuSans-53"/>
      </g>
     </g>
    </g>
    <g id="ytick_3">
     <g id="line2d_17">
      <path clip-path="url(#p81e6260c5f)" d="M 71.668125 176.807967 
L 376.031761 176.807967 
" style="fill:none;stroke:#cccccc;stroke-linecap:square;stroke-width:0.8;"/>
     </g>
     <g id="line2d_18">
      <g>
       <use style="stroke:#000000;stroke-width:0.8;" x="71.668125" xlink:href="#m5c138367a1" y="176.807967"/>
      </g>
     </g>
     <g id="text_16">
      <!-- 1.00 -->
      <g transform="translate(37.949375 181.36703)scale(0.12 -0.12)">
       <use xlink:href="#DejaVuSans-49"/>
       <use x="63.623047" xlink:href="#DejaVuSans-46"/>
       <use x="95.410156" xlink:href="#DejaVuSans-48"/>
       <use x="159.033203" xlink:href="#DejaVuSans-48"/>
      </g>
     </g>
    </g>
    <g id="ytick_4">
     <g id="line2d_19">
      <path clip-path="url(#p81e6260c5f)" d="M 71.668125 151.406098 
L 376.031761 151.406098 
" style="fill:none;stroke:#cccccc;stroke-linecap:square;stroke-width:0.8;"/>
     </g>
     <g id="line2d_20">
      <g>
       <use style="stroke:#000000;stroke-width:0.8;" x="71.668125" xlink:href="#m5c138367a1" y="151.406098"/>
      </g>
     </g>
     <g id="text_17">
      <!-- 1.25 -->
      <g transform="translate(37.949375 155.965161)scale(0.12 -0.12)">
       <use xlink:href="#DejaVuSans-49"/>
       <use x="63.623047" xlink:href="#DejaVuSans-46"/>
       <use x="95.410156" xlink:href="#DejaVuSans-50"/>
       <use x="159.033203" xlink:href="#DejaVuSans-53"/>
      </g>
     </g>
    </g>
    <g id="ytick_5">
     <g id="line2d_21">
      <path clip-path="url(#p81e6260c5f)" d="M 71.668125 126.004229 
L 376.031761 126.004229 
" style="fill:none;stroke:#cccccc;stroke-linecap:square;stroke-width:0.8;"/>
     </g>
     <g id="line2d_22">
      <g>
       <use style="stroke:#000000;stroke-width:0.8;" x="71.668125" xlink:href="#m5c138367a1" y="126.004229"/>
      </g>
     </g>
     <g id="text_18">
      <!-- 1.50 -->
      <g transform="translate(37.949375 130.563291)scale(0.12 -0.12)">
       <use xlink:href="#DejaVuSans-49"/>
       <use x="63.623047" xlink:href="#DejaVuSans-46"/>
       <use x="95.410156" xlink:href="#DejaVuSans-53"/>
       <use x="159.033203" xlink:href="#DejaVuSans-48"/>
      </g>
     </g>
    </g>
    <g id="ytick_6">
     <g id="line2d_23">
      <path clip-path="url(#p81e6260c5f)" d="M 71.668125 100.60236 
L 376.031761 100.60236 
" style="fill:none;stroke:#cccccc;stroke-linecap:square;stroke-width:0.8;"/>
     </g>
     <g id="line2d_24">
      <g>
       <use style="stroke:#000000;stroke-width:0.8;" x="71.668125" xlink:href="#m5c138367a1" y="100.60236"/>
      </g>
     </g>
     <g id="text_19">
      <!-- 1.75 -->
      <g transform="translate(37.949375 105.161422)scale(0.12 -0.12)">
       <use xlink:href="#DejaVuSans-49"/>
       <use x="63.623047" xlink:href="#DejaVuSans-46"/>
       <use x="95.410156" xlink:href="#DejaVuSans-55"/>
       <use x="159.033203" xlink:href="#DejaVuSans-53"/>
      </g>
     </g>
    </g>
    <g id="ytick_7">
     <g id="line2d_25">
      <path clip-path="url(#p81e6260c5f)" d="M 71.668125 75.200491 
L 376.031761 75.200491 
" style="fill:none;stroke:#cccccc;stroke-linecap:square;stroke-width:0.8;"/>
     </g>
     <g id="line2d_26">
      <g>
       <use style="stroke:#000000;stroke-width:0.8;" x="71.668125" xlink:href="#m5c138367a1" y="75.200491"/>
      </g>
     </g>
     <g id="text_20">
      <!-- 2.00 -->
      <g transform="translate(37.949375 79.759553)scale(0.12 -0.12)">
       <use xlink:href="#DejaVuSans-50"/>
       <use x="63.623047" xlink:href="#DejaVuSans-46"/>
       <use x="95.410156" xlink:href="#DejaVuSans-48"/>
       <use x="159.033203" xlink:href="#DejaVuSans-48"/>
      </g>
     </g>
    </g>
    <g id="ytick_8">
     <g id="line2d_27">
      <path clip-path="url(#p81e6260c5f)" d="M 71.668125 49.798621 
L 376.031761 49.798621 
" style="fill:none;stroke:#cccccc;stroke-linecap:square;stroke-width:0.8;"/>
     </g>
     <g id="line2d_28">
      <g>
       <use style="stroke:#000000;stroke-width:0.8;" x="71.668125" xlink:href="#m5c138367a1" y="49.798621"/>
      </g>
     </g>
     <g id="text_21">
      <!-- 2.25 -->
      <g transform="translate(37.949375 54.357684)scale(0.12 -0.12)">
       <use xlink:href="#DejaVuSans-50"/>
       <use x="63.623047" xlink:href="#DejaVuSans-46"/>
       <use x="95.410156" xlink:href="#DejaVuSans-50"/>
       <use x="159.033203" xlink:href="#DejaVuSans-53"/>
      </g>
     </g>
    </g>
    <g id="text_22">
     <!-- Park Use -->
     <defs>
      <path d="M 19.671875 64.796875 
L 19.671875 37.40625 
L 32.078125 37.40625 
Q 38.96875 37.40625 42.71875 40.96875 
Q 46.484375 44.53125 46.484375 51.125 
Q 46.484375 57.671875 42.71875 61.234375 
Q 38.96875 64.796875 32.078125 64.796875 
z
M 9.8125 72.90625 
L 32.078125 72.90625 
Q 44.34375 72.90625 50.609375 67.359375 
Q 56.890625 61.8125 56.890625 51.125 
Q 56.890625 40.328125 50.609375 34.8125 
Q 44.34375 29.296875 32.078125 29.296875 
L 19.671875 29.296875 
L 19.671875 0 
L 9.8125 0 
z
" id="DejaVuSans-80"/>
      <path d="M 9.078125 75.984375 
L 18.109375 75.984375 
L 18.109375 31.109375 
L 44.921875 54.6875 
L 56.390625 54.6875 
L 27.390625 29.109375 
L 57.625 0 
L 45.90625 0 
L 18.109375 26.703125 
L 18.109375 0 
L 9.078125 0 
z
" id="DejaVuSans-107"/>
      <path d="M 8.6875 72.90625 
L 18.609375 72.90625 
L 18.609375 28.609375 
Q 18.609375 16.890625 22.84375 11.734375 
Q 27.09375 6.59375 36.625 6.59375 
Q 46.09375 6.59375 50.34375 11.734375 
Q 54.59375 16.890625 54.59375 28.609375 
L 54.59375 72.90625 
L 64.5 72.90625 
L 64.5 27.390625 
Q 64.5 13.140625 57.4375 5.859375 
Q 50.390625 -1.421875 36.625 -1.421875 
Q 22.796875 -1.421875 15.734375 5.859375 
Q 8.6875 13.140625 8.6875 27.390625 
z
" id="DejaVuSans-85"/>
     </defs>
     <g transform="translate(25.037813 174.01625)rotate(-90)scale(0.14 -0.14)">
      <use xlink:href="#DejaVuSans-80"/>
      <use x="60.240234" xlink:href="#DejaVuSans-97"/>
      <use x="121.519531" xlink:href="#DejaVuSans-114"/>
      <use x="162.632812" xlink:href="#DejaVuSans-107"/>
      <use x="220.542969" xlink:href="#DejaVuSans-32"/>
      <use x="252.330078" xlink:href="#DejaVuSans-85"/>
      <use x="325.523438" xlink:href="#DejaVuSans-115"/>
      <use x="377.623047" xlink:href="#DejaVuSans-101"/>
     </g>
    </g>
   </g>
   <g id="patch_3">
    <path d="M 71.668125 251.9975 
L 71.668125 34.5575 
" style="fill:none;"/>
   </g>
   <g id="patch_4">
    <path d="M 71.668125 251.9975 
L 376.031761 251.9975 
" style="fill:none;"/>
   </g>
   <g id="text_23">
    <!-- New York -->
    <defs>
     <path d="M 9.8125 72.90625 
L 23.09375 72.90625 
L 55.421875 11.921875 
L 55.421875 72.90625 
L 64.984375 72.90625 
L 64.984375 0 
L 51.703125 0 
L 19.390625 60.984375 
L 19.390625 0 
L 9.8125 0 
z
" id="DejaVuSans-78"/>
     <path d="M 4.203125 54.6875 
L 13.1875 54.6875 
L 24.421875 12.015625 
L 35.59375 54.6875 
L 46.1875 54.6875 
L 57.421875 12.015625 
L 68.609375 54.6875 
L 77.59375 54.6875 
L 63.28125 0 
L 52.6875 0 
L 40.921875 44.828125 
L 29.109375 0 
L 18.5 0 
z
" id="DejaVuSans-119"/>
     <path d="M -0.203125 72.90625 
L 10.40625 72.90625 
L 30.609375 42.921875 
L 50.6875 72.90625 
L 61.28125 72.90625 
L 35.5 34.71875 
L 35.5 0 
L 25.59375 0 
L 25.59375 34.71875 
z
" id="DejaVuSans-89"/>
    </defs>
    <g transform="translate(186.171193 26.5575)scale(0.16 -0.16)">
     <use xlink:href="#DejaVuSans-78"/>
     <use x="74.804688" xlink:href="#DejaVuSans-101"/>
     <use x="136.328125" xlink:href="#DejaVuSans-119"/>
     <use x="218.115234" xlink:href="#DejaVuSans-32"/>
     <use x="249.902344" xlink:href="#DejaVuSans-89"/>
     <use x="310.783203" xlink:href="#DejaVuSans-111"/>
     <use x="371.964844" xlink:href="#DejaVuSans-114"/>
     <use x="413.078125" xlink:href="#DejaVuSans-107"/>
    </g>
   </g>
   <g id="legend_1">
    <g id="patch_5">
     <path d="M 113.635398 118.2719 
L 196.975398 118.2719 
Q 199.375398 118.2719 199.375398 115.8719 
L 199.375398 67.4444 
Q 199.375398 65.0444 196.975398 65.0444 
L 113.635398 65.0444 
Q 111.235398 65.0444 111.235398 67.4444 
L 111.235398 115.8719 
Q 111.235398 118.2719 113.635398 118.2719 
z
" style="fill:#ffffff;stroke:#ffffff;stroke-linejoin:miter;"/>
    </g>
    <g id="line2d_29">
     <path d="M 123.235398 81.962525 
L 147.235398 81.962525 
" style="fill:none;stroke:#339933;stroke-linecap:square;stroke-width:2;"/>
    </g>
    <g id="line2d_30"/>
    <g id="text_24">
     <!-- 2020 -->
     <g transform="translate(156.835398 86.162525)scale(0.12 -0.12)">
      <use xlink:href="#DejaVuSans-50"/>
      <use x="63.623047" xlink:href="#DejaVuSans-48"/>
      <use x="127.246094" xlink:href="#DejaVuSans-50"/>
      <use x="190.869141" xlink:href="#DejaVuSans-48"/>
     </g>
    </g>
    <g id="line2d_31">
     <path d="M 123.235398 99.576275 
L 147.235398 99.576275 
" style="fill:none;stroke:#777777;stroke-dasharray:2,3.3;stroke-dashoffset:0;stroke-width:2;"/>
    </g>
    <g id="line2d_32"/>
    <g id="text_25">
     <!-- 2019 -->
     <defs>
      <path d="M 10.984375 1.515625 
L 10.984375 10.5 
Q 14.703125 8.734375 18.5 7.8125 
Q 22.3125 6.890625 25.984375 6.890625 
Q 35.75 6.890625 40.890625 13.453125 
Q 46.046875 20.015625 46.78125 33.40625 
Q 43.953125 29.203125 39.59375 26.953125 
Q 35.25 24.703125 29.984375 24.703125 
Q 19.046875 24.703125 12.671875 31.3125 
Q 6.296875 37.9375 6.296875 49.421875 
Q 6.296875 60.640625 12.9375 67.421875 
Q 19.578125 74.21875 30.609375 74.21875 
Q 43.265625 74.21875 49.921875 64.515625 
Q 56.59375 54.828125 56.59375 36.375 
Q 56.59375 19.140625 48.40625 8.859375 
Q 40.234375 -1.421875 26.421875 -1.421875 
Q 22.703125 -1.421875 18.890625 -0.6875 
Q 15.09375 0.046875 10.984375 1.515625 
z
M 30.609375 32.421875 
Q 37.25 32.421875 41.125 36.953125 
Q 45.015625 41.5 45.015625 49.421875 
Q 45.015625 57.28125 41.125 61.84375 
Q 37.25 66.40625 30.609375 66.40625 
Q 23.96875 66.40625 20.09375 61.84375 
Q 16.21875 57.28125 16.21875 49.421875 
Q 16.21875 41.5 20.09375 36.953125 
Q 23.96875 32.421875 30.609375 32.421875 
z
" id="DejaVuSans-57"/>
     </defs>
     <g transform="translate(156.835398 103.776275)scale(0.12 -0.12)">
      <use xlink:href="#DejaVuSans-50"/>
      <use x="63.623047" xlink:href="#DejaVuSans-48"/>
      <use x="127.246094" xlink:href="#DejaVuSans-49"/>
      <use x="190.869141" xlink:href="#DejaVuSans-57"/>
     </g>
    </g>
   </g>
   <g id="line2d_33">
    <path clip-path="url(#p81e6260c5f)" d="M 87.687264 137.857526 
L 90.891092 131.573087 
L 94.094919 131.778871 
L 97.298747 157.061736 
L 100.502575 171.186665 
L 103.706403 174.137158 
L 106.91023 167.407137 
L 110.114058 158.61497 
L 113.317886 169.254387 
L 116.521714 161.264234 
L 119.725541 162.778569 
L 122.929369 184.617379 
L 126.133197 174.364661 
L 129.337025 176.429485 
L 132.540852 172.29481 
L 135.74468 176.186672 
L 138.948508 164.224905 
L 142.152336 153.576518 
L 145.356163 169.434422 
L 148.559991 192.962727 
L 151.763819 176.405242 
L 154.967647 177.637617 
L 158.171474 173.72833 
L 161.375302 161.695241 
L 164.57913 170.497407 
L 167.782958 187.89192 
L 170.986785 174.643688 
L 174.190613 174.175479 
L 177.394441 182.178938 
L 180.598269 185.30425 
L 183.802096 177.087802 
L 187.005924 191.225605 
L 190.209752 198.299722 
L 193.41358 188.965787 
L 196.617407 181.764839 
L 199.821235 186.099405 
L 203.025063 188.663155 
L 206.228891 179.57203 
L 209.432718 176.982321 
L 212.636546 198.746575 
L 215.840374 189.467853 
L 219.044202 199.470693 
L 222.248029 189.147189 
L 225.451857 183.962803 
L 228.655685 169.753975 
L 231.859513 166.357671 
L 235.06334 165.831357 
L 238.267168 187.868503 
L 241.470996 186.053133 
L 244.674824 197.530084 
L 247.878651 186.420793 
L 251.082479 183.643605 
L 254.286307 183.609449 
L 257.490135 188.180517 
L 260.693962 192.639202 
L 263.89779 189.11803 
L 267.101618 189.703601 
L 270.305446 187.243333 
L 273.509273 181.447421 
L 276.713101 172.457553 
L 279.916929 188.388584 
L 283.120757 195.412074 
L 286.324584 188.923792 
L 289.528412 181.152178 
L 292.73224 181.175755 
L 295.936068 159.870446 
L 299.139895 148.728863 
L 302.343723 171.855003 
L 305.547551 144.381086 
L 308.751379 154.344073 
L 311.955206 167.448599 
L 315.159034 155.638507 
L 318.362862 123.735607 
L 321.56669 130.963847 
L 324.770517 158.483216 
L 327.974345 149.022354 
L 331.178173 157.666642 
L 334.382001 166.382609 
L 337.585828 153.655456 
L 340.789656 126.632154 
L 343.993484 129.930386 
L 347.197312 133.910626 
L 350.401139 132.474046 
L 353.604967 130.818207 
L 356.808795 131.811117 
L 360.012623 115.831376 
L 363.21645 101.38144 
L 366.420278 81.811546 
L 369.624106 132.932309 
" style="fill:none;stroke:#777777;stroke-dasharray:2,3.3;stroke-dashoffset:0;stroke-width:2;"/>
   </g>
   <g id="line2d_34">
    <path clip-path="url(#p81e6260c5f)" d="M 87.687264 188.378519 
L 90.891092 163.337134 
L 94.094919 155.354676 
L 97.298747 171.029964 
L 100.502575 188.782678 
L 103.706403 161.025801 
L 106.91023 156.658363 
L 110.114058 161.538077 
L 113.317886 164.517454 
L 116.521714 159.946941 
L 119.725541 156.267512 
L 122.929369 172.086341 
L 126.133197 178.65978 
L 129.337025 176.087673 
L 132.540852 182.381605 
L 135.74468 176.294173 
L 138.948508 167.079294 
L 142.152336 177.243935 
L 145.356163 179.014538 
L 148.559991 193.35181 
L 151.763819 185.251075 
L 154.967647 181.152919 
L 158.171474 174.193098 
L 161.375302 167.773903 
L 164.57913 184.534365 
L 167.782958 184.72285 
L 170.986785 176.7593 
L 174.190613 183.267052 
L 177.394441 179.709975 
L 180.598269 178.537876 
L 183.802096 174.955156 
L 187.005924 172.167861 
L 190.209752 192.689126 
L 193.41358 176.067436 
L 196.617407 181.831019 
L 199.821235 185.262946 
L 203.025063 179.100912 
L 206.228891 167.328533 
L 209.432718 171.28769 
L 212.636546 184.577842 
L 215.840374 177.84525 
L 219.044202 179.728606 
L 222.248029 185.698578 
L 225.451857 200.377918 
L 228.655685 194.230258 
L 231.859513 170.042074 
L 235.06334 159.170498 
L 238.267168 177.866981 
L 241.470996 189.256554 
L 244.674824 179.161088 
L 247.878651 187.672406 
L 251.082479 172.330993 
L 254.286307 175.0196 
L 257.490135 183.259637 
L 260.693962 184.168158 
L 263.89779 186.246207 
L 267.101618 182.531426 
L 270.305446 176.148867 
L 273.509273 169.172911 
L 276.713101 168.342827 
L 279.916929 185.377508 
L 283.120757 179.685092 
L 286.324584 184.082003 
L 289.528412 185.041483 
L 292.73224 179.619568 
L 295.936068 169.625055 
L 299.139895 162.951577 
L 302.343723 171.45452 
L 305.547551 152.946165 
L 308.751379 170.991921 
L 311.955206 184.873247 
L 315.159034 189.428057 
L 318.362862 203.281404 
L 321.56669 208.237409 
L 324.770517 210.468742 
L 327.974345 213.82977 
L 331.178173 215.274062 
L 334.382001 216.122682 
L 337.585828 228.585166 
L 340.789656 227.359036 
L 343.993484 237.114343 
L 347.197312 228.864815 
L 350.401139 233.316283 
L 353.604967 226.579261 
L 356.808795 233.204761 
L 360.012623 225.879268 
L 363.21645 222.646312 
L 366.420278 240.454281 
L 369.624106 238.536479 
L 372.827934 232.706411 
" style="fill:none;stroke:#339933;stroke-linecap:square;stroke-width:2;"/>
   </g>
  </g>
  <g id="axes_2">
   <g id="patch_6">
    <path d="M 436.904489 251.9975 
L 741.268125 251.9975 
L 741.268125 34.5575 
L 436.904489 34.5575 
z
" style="fill:none;"/>
   </g>
   <g id="matplotlib.axis_3">
    <g id="xtick_13">
     <g id="line2d_35">
      <g>
       <use style="stroke:#000000;stroke-width:0.8;" x="456.127455" xlink:href="#m2612b18692" y="251.9975"/>
      </g>
     </g>
     <g id="text_26">
      <!-- Jan -->
      <g transform="translate(445.336518 270.135313)scale(0.14 -0.14)">
       <use xlink:href="#DejaVuSans-74"/>
       <use x="29.492188" xlink:href="#DejaVuSans-97"/>
       <use x="90.771484" xlink:href="#DejaVuSans-110"/>
      </g>
     </g>
    </g>
    <g id="xtick_14">
     <g id="line2d_36">
      <g>
       <use style="stroke:#000000;stroke-width:0.8;" x="555.446115" xlink:href="#m2612b18692" y="251.9975"/>
      </g>
     </g>
     <g id="text_27">
      <!-- Feb -->
      <g transform="translate(542.674397 270.135313)scale(0.14 -0.14)">
       <use xlink:href="#DejaVuSans-70"/>
       <use x="57.441406" xlink:href="#DejaVuSans-101"/>
       <use x="118.964844" xlink:href="#DejaVuSans-98"/>
      </g>
     </g>
    </g>
    <g id="xtick_15">
     <g id="line2d_37">
      <g>
       <use style="stroke:#000000;stroke-width:0.8;" x="645.153292" xlink:href="#m2612b18692" y="251.9975"/>
      </g>
     </g>
     <g id="text_28">
      <!-- Mar -->
      <g transform="translate(631.946261 270.135313)scale(0.14 -0.14)">
       <use xlink:href="#DejaVuSans-77"/>
       <use x="86.279297" xlink:href="#DejaVuSans-97"/>
       <use x="147.558594" xlink:href="#DejaVuSans-114"/>
      </g>
     </g>
    </g>
    <g id="xtick_16">
     <g id="line2d_38">
      <g>
       <use style="stroke:#000000;stroke-width:0.6;" x="478.554249" xlink:href="#m129951f369" y="251.9975"/>
      </g>
     </g>
     <g id="text_29">
      <!-- 8 -->
      <g transform="translate(475.372999 265.595938)scale(0.1 -0.1)">
       <use xlink:href="#DejaVuSans-56"/>
      </g>
     </g>
    </g>
    <g id="xtick_17">
     <g id="line2d_39">
      <g>
       <use style="stroke:#000000;stroke-width:0.6;" x="500.981044" xlink:href="#m129951f369" y="251.9975"/>
      </g>
     </g>
     <g id="text_30">
      <!-- 15 -->
      <g transform="translate(494.618544 265.595938)scale(0.1 -0.1)">
       <use xlink:href="#DejaVuSans-49"/>
       <use x="63.623047" xlink:href="#DejaVuSans-53"/>
      </g>
     </g>
    </g>
    <g id="xtick_18">
     <g id="line2d_40">
      <g>
       <use style="stroke:#000000;stroke-width:0.6;" x="523.407838" xlink:href="#m129951f369" y="251.9975"/>
      </g>
     </g>
     <g id="text_31">
      <!-- 22 -->
      <g transform="translate(517.045338 265.595938)scale(0.1 -0.1)">
       <use xlink:href="#DejaVuSans-50"/>
       <use x="63.623047" xlink:href="#DejaVuSans-50"/>
      </g>
     </g>
    </g>
    <g id="xtick_19">
     <g id="line2d_41">
      <g>
       <use style="stroke:#000000;stroke-width:0.6;" x="577.87291" xlink:href="#m129951f369" y="251.9975"/>
      </g>
     </g>
     <g id="text_32">
      <!-- 8 -->
      <g transform="translate(574.69166 265.595938)scale(0.1 -0.1)">
       <use xlink:href="#DejaVuSans-56"/>
      </g>
     </g>
    </g>
    <g id="xtick_20">
     <g id="line2d_42">
      <g>
       <use style="stroke:#000000;stroke-width:0.6;" x="600.299704" xlink:href="#m129951f369" y="251.9975"/>
      </g>
     </g>
     <g id="text_33">
      <!-- 15 -->
      <g transform="translate(593.937204 265.595938)scale(0.1 -0.1)">
       <use xlink:href="#DejaVuSans-49"/>
       <use x="63.623047" xlink:href="#DejaVuSans-53"/>
      </g>
     </g>
    </g>
    <g id="xtick_21">
     <g id="line2d_43">
      <g>
       <use style="stroke:#000000;stroke-width:0.6;" x="622.726498" xlink:href="#m129951f369" y="251.9975"/>
      </g>
     </g>
     <g id="text_34">
      <!-- 22 -->
      <g transform="translate(616.363998 265.595938)scale(0.1 -0.1)">
       <use xlink:href="#DejaVuSans-50"/>
       <use x="63.623047" xlink:href="#DejaVuSans-50"/>
      </g>
     </g>
    </g>
    <g id="xtick_22">
     <g id="line2d_44">
      <g>
       <use style="stroke:#000000;stroke-width:0.6;" x="667.580087" xlink:href="#m129951f369" y="251.9975"/>
      </g>
     </g>
     <g id="text_35">
      <!-- 8 -->
      <g transform="translate(664.398837 265.595938)scale(0.1 -0.1)">
       <use xlink:href="#DejaVuSans-56"/>
      </g>
     </g>
    </g>
    <g id="xtick_23">
     <g id="line2d_45">
      <g>
       <use style="stroke:#000000;stroke-width:0.6;" x="690.006881" xlink:href="#m129951f369" y="251.9975"/>
      </g>
     </g>
     <g id="text_36">
      <!-- 15 -->
      <g transform="translate(683.644381 265.595938)scale(0.1 -0.1)">
       <use xlink:href="#DejaVuSans-49"/>
       <use x="63.623047" xlink:href="#DejaVuSans-53"/>
      </g>
     </g>
    </g>
    <g id="xtick_24">
     <g id="line2d_46">
      <g>
       <use style="stroke:#000000;stroke-width:0.6;" x="712.433675" xlink:href="#m129951f369" y="251.9975"/>
      </g>
     </g>
     <g id="text_37">
      <!-- 22 -->
      <g transform="translate(706.071175 265.595938)scale(0.1 -0.1)">
       <use xlink:href="#DejaVuSans-50"/>
       <use x="63.623047" xlink:href="#DejaVuSans-50"/>
      </g>
     </g>
    </g>
    <g id="text_38">
     <!-- Date [+ DoW offset] -->
     <g transform="translate(517.849276 293.684688)scale(0.14 -0.14)">
      <use xlink:href="#DejaVuSans-68"/>
      <use x="77.001953" xlink:href="#DejaVuSans-97"/>
      <use x="138.28125" xlink:href="#DejaVuSans-116"/>
      <use x="177.490234" xlink:href="#DejaVuSans-101"/>
      <use x="239.013672" xlink:href="#DejaVuSans-32"/>
      <use x="270.800781" xlink:href="#DejaVuSans-91"/>
      <use x="309.814453" xlink:href="#DejaVuSans-43"/>
      <use x="393.603516" xlink:href="#DejaVuSans-32"/>
      <use x="425.390625" xlink:href="#DejaVuSans-68"/>
      <use x="502.392578" xlink:href="#DejaVuSans-111"/>
      <use x="563.574219" xlink:href="#DejaVuSans-87"/>
      <use x="662.451172" xlink:href="#DejaVuSans-32"/>
      <use x="694.238281" xlink:href="#DejaVuSans-111"/>
      <use x="755.419922" xlink:href="#DejaVuSans-102"/>
      <use x="790.625" xlink:href="#DejaVuSans-102"/>
      <use x="825.830078" xlink:href="#DejaVuSans-115"/>
      <use x="877.929688" xlink:href="#DejaVuSans-101"/>
      <use x="939.453125" xlink:href="#DejaVuSans-116"/>
      <use x="978.662109" xlink:href="#DejaVuSans-93"/>
     </g>
    </g>
   </g>
   <g id="matplotlib.axis_4">
    <g id="ytick_9">
     <g id="line2d_47">
      <path clip-path="url(#p10a210e264)" d="M 436.904489 227.611706 
L 741.268125 227.611706 
" style="fill:none;stroke:#cccccc;stroke-linecap:square;stroke-width:0.8;"/>
     </g>
     <g id="line2d_48">
      <g>
       <use style="stroke:#000000;stroke-width:0.8;" x="436.904489" xlink:href="#m5c138367a1" y="227.611706"/>
      </g>
     </g>
    </g>
    <g id="ytick_10">
     <g id="line2d_49">
      <path clip-path="url(#p10a210e264)" d="M 436.904489 202.209836 
L 741.268125 202.209836 
" style="fill:none;stroke:#cccccc;stroke-linecap:square;stroke-width:0.8;"/>
     </g>
     <g id="line2d_50">
      <g>
       <use style="stroke:#000000;stroke-width:0.8;" x="436.904489" xlink:href="#m5c138367a1" y="202.209836"/>
      </g>
     </g>
    </g>
    <g id="ytick_11">
     <g id="line2d_51">
      <path clip-path="url(#p10a210e264)" d="M 436.904489 176.807967 
L 741.268125 176.807967 
" style="fill:none;stroke:#cccccc;stroke-linecap:square;stroke-width:0.8;"/>
     </g>
     <g id="line2d_52">
      <g>
       <use style="stroke:#000000;stroke-width:0.8;" x="436.904489" xlink:href="#m5c138367a1" y="176.807967"/>
      </g>
     </g>
    </g>
    <g id="ytick_12">
     <g id="line2d_53">
      <path clip-path="url(#p10a210e264)" d="M 436.904489 151.406098 
L 741.268125 151.406098 
" style="fill:none;stroke:#cccccc;stroke-linecap:square;stroke-width:0.8;"/>
     </g>
     <g id="line2d_54">
      <g>
       <use style="stroke:#000000;stroke-width:0.8;" x="436.904489" xlink:href="#m5c138367a1" y="151.406098"/>
      </g>
     </g>
    </g>
    <g id="ytick_13">
     <g id="line2d_55">
      <path clip-path="url(#p10a210e264)" d="M 436.904489 126.004229 
L 741.268125 126.004229 
" style="fill:none;stroke:#cccccc;stroke-linecap:square;stroke-width:0.8;"/>
     </g>
     <g id="line2d_56">
      <g>
       <use style="stroke:#000000;stroke-width:0.8;" x="436.904489" xlink:href="#m5c138367a1" y="126.004229"/>
      </g>
     </g>
    </g>
    <g id="ytick_14">
     <g id="line2d_57">
      <path clip-path="url(#p10a210e264)" d="M 436.904489 100.60236 
L 741.268125 100.60236 
" style="fill:none;stroke:#cccccc;stroke-linecap:square;stroke-width:0.8;"/>
     </g>
     <g id="line2d_58">
      <g>
       <use style="stroke:#000000;stroke-width:0.8;" x="436.904489" xlink:href="#m5c138367a1" y="100.60236"/>
      </g>
     </g>
    </g>
    <g id="ytick_15">
     <g id="line2d_59">
      <path clip-path="url(#p10a210e264)" d="M 436.904489 75.200491 
L 741.268125 75.200491 
" style="fill:none;stroke:#cccccc;stroke-linecap:square;stroke-width:0.8;"/>
     </g>
     <g id="line2d_60">
      <g>
       <use style="stroke:#000000;stroke-width:0.8;" x="436.904489" xlink:href="#m5c138367a1" y="75.200491"/>
      </g>
     </g>
    </g>
    <g id="ytick_16">
     <g id="line2d_61">
      <path clip-path="url(#p10a210e264)" d="M 436.904489 49.798621 
L 741.268125 49.798621 
" style="fill:none;stroke:#cccccc;stroke-linecap:square;stroke-width:0.8;"/>
     </g>
     <g id="line2d_62">
      <g>
       <use style="stroke:#000000;stroke-width:0.8;" x="436.904489" xlink:href="#m5c138367a1" y="49.798621"/>
      </g>
     </g>
    </g>
   </g>
   <g id="patch_7">
    <path d="M 436.904489 251.9975 
L 436.904489 34.5575 
" style="fill:none;"/>
   </g>
   <g id="patch_8">
    <path d="M 436.904489 251.9975 
L 741.268125 251.9975 
" style="fill:none;"/>
   </g>
   <g id="text_39">
    <!-- Chicago -->
    <defs>
     <path d="M 64.40625 67.28125 
L 64.40625 56.890625 
Q 59.421875 61.53125 53.78125 63.8125 
Q 48.140625 66.109375 41.796875 66.109375 
Q 29.296875 66.109375 22.65625 58.46875 
Q 16.015625 50.828125 16.015625 36.375 
Q 16.015625 21.96875 22.65625 14.328125 
Q 29.296875 6.6875 41.796875 6.6875 
Q 48.140625 6.6875 53.78125 8.984375 
Q 59.421875 11.28125 64.40625 15.921875 
L 64.40625 5.609375 
Q 59.234375 2.09375 53.4375 0.328125 
Q 47.65625 -1.421875 41.21875 -1.421875 
Q 24.65625 -1.421875 15.125 8.703125 
Q 5.609375 18.84375 5.609375 36.375 
Q 5.609375 53.953125 15.125 64.078125 
Q 24.65625 74.21875 41.21875 74.21875 
Q 47.75 74.21875 53.53125 72.484375 
Q 59.328125 70.75 64.40625 67.28125 
z
" id="DejaVuSans-67"/>
     <path d="M 54.890625 33.015625 
L 54.890625 0 
L 45.90625 0 
L 45.90625 32.71875 
Q 45.90625 40.484375 42.875 44.328125 
Q 39.84375 48.1875 33.796875 48.1875 
Q 26.515625 48.1875 22.3125 43.546875 
Q 18.109375 38.921875 18.109375 30.90625 
L 18.109375 0 
L 9.078125 0 
L 9.078125 75.984375 
L 18.109375 75.984375 
L 18.109375 46.1875 
Q 21.34375 51.125 25.703125 53.5625 
Q 30.078125 56 35.796875 56 
Q 45.21875 56 50.046875 50.171875 
Q 54.890625 44.34375 54.890625 33.015625 
z
" id="DejaVuSans-104"/>
     <path d="M 9.421875 54.6875 
L 18.40625 54.6875 
L 18.40625 0 
L 9.421875 0 
z
M 9.421875 75.984375 
L 18.40625 75.984375 
L 18.40625 64.59375 
L 9.421875 64.59375 
z
" id="DejaVuSans-105"/>
     <path d="M 48.78125 52.59375 
L 48.78125 44.1875 
Q 44.96875 46.296875 41.140625 47.34375 
Q 37.3125 48.390625 33.40625 48.390625 
Q 24.65625 48.390625 19.8125 42.84375 
Q 14.984375 37.3125 14.984375 27.296875 
Q 14.984375 17.28125 19.8125 11.734375 
Q 24.65625 6.203125 33.40625 6.203125 
Q 37.3125 6.203125 41.140625 7.25 
Q 44.96875 8.296875 48.78125 10.40625 
L 48.78125 2.09375 
Q 45.015625 0.34375 40.984375 -0.53125 
Q 36.96875 -1.421875 32.421875 -1.421875 
Q 20.0625 -1.421875 12.78125 6.34375 
Q 5.515625 14.109375 5.515625 27.296875 
Q 5.515625 40.671875 12.859375 48.328125 
Q 20.21875 56 33.015625 56 
Q 37.15625 56 41.109375 55.140625 
Q 45.0625 54.296875 48.78125 52.59375 
z
" id="DejaVuSans-99"/>
     <path d="M 45.40625 27.984375 
Q 45.40625 37.75 41.375 43.109375 
Q 37.359375 48.484375 30.078125 48.484375 
Q 22.859375 48.484375 18.828125 43.109375 
Q 14.796875 37.75 14.796875 27.984375 
Q 14.796875 18.265625 18.828125 12.890625 
Q 22.859375 7.515625 30.078125 7.515625 
Q 37.359375 7.515625 41.375 12.890625 
Q 45.40625 18.265625 45.40625 27.984375 
z
M 54.390625 6.78125 
Q 54.390625 -7.171875 48.1875 -13.984375 
Q 42 -20.796875 29.203125 -20.796875 
Q 24.46875 -20.796875 20.265625 -20.09375 
Q 16.0625 -19.390625 12.109375 -17.921875 
L 12.109375 -9.1875 
Q 16.0625 -11.328125 19.921875 -12.34375 
Q 23.78125 -13.375 27.78125 -13.375 
Q 36.625 -13.375 41.015625 -8.765625 
Q 45.40625 -4.15625 45.40625 5.171875 
L 45.40625 9.625 
Q 42.625 4.78125 38.28125 2.390625 
Q 33.9375 0 27.875 0 
Q 17.828125 0 11.671875 7.65625 
Q 5.515625 15.328125 5.515625 27.984375 
Q 5.515625 40.671875 11.671875 48.328125 
Q 17.828125 56 27.875 56 
Q 33.9375 56 38.28125 53.609375 
Q 42.625 51.21875 45.40625 46.390625 
L 45.40625 54.6875 
L 54.390625 54.6875 
z
" id="DejaVuSans-103"/>
    </defs>
    <g transform="translate(556.932557 26.5575)scale(0.16 -0.16)">
     <use xlink:href="#DejaVuSans-67"/>
     <use x="69.824219" xlink:href="#DejaVuSans-104"/>
     <use x="133.203125" xlink:href="#DejaVuSans-105"/>
     <use x="160.986328" xlink:href="#DejaVuSans-99"/>
     <use x="215.966797" xlink:href="#DejaVuSans-97"/>
     <use x="277.246094" xlink:href="#DejaVuSans-103"/>
     <use x="340.722656" xlink:href="#DejaVuSans-111"/>
    </g>
   </g>
   <g id="legend_2"/>
   <g id="line2d_63">
    <path clip-path="url(#p10a210e264)" d="M 452.923627 157.629601 
L 456.127455 131.617118 
L 459.331283 131.515995 
L 462.535111 138.119833 
L 465.738938 126.077367 
L 468.942766 168.840752 
L 472.146594 171.889405 
L 475.350422 171.182796 
L 478.554249 167.70384 
L 481.758077 166.349091 
L 484.961905 166.509422 
L 488.165733 188.951024 
L 491.36956 181.244145 
L 494.573388 179.960228 
L 497.777216 187.246553 
L 500.981044 179.974712 
L 504.184871 156.381501 
L 507.388699 146.57273 
L 510.592527 174.686936 
L 513.796355 189.834171 
L 517.000182 183.074449 
L 520.20401 181.565031 
L 523.407838 180.71379 
L 526.611666 173.195516 
L 529.815493 165.726083 
L 533.019321 199.560823 
L 536.223149 185.403009 
L 539.426977 182.174417 
L 542.630804 221.575666 
L 545.834632 214.965011 
L 549.03846 191.419465 
L 552.242288 174.360429 
L 555.446115 199.072038 
L 558.649943 196.511161 
L 561.853771 185.861212 
L 565.057599 185.142063 
L 568.261426 175.430003 
L 571.465254 171.285855 
L 574.669082 153.588489 
L 577.87291 192.792136 
L 581.076737 195.471234 
L 584.280565 199.20531 
L 587.484393 193.042213 
L 590.688221 188.638621 
L 593.892048 161.12942 
L 597.095876 133.265635 
L 600.299704 164.792771 
L 603.503532 188.109782 
L 606.707359 191.483415 
L 609.911187 188.911865 
L 613.115015 181.94408 
L 616.318843 175.145622 
L 619.52267 178.1183 
L 622.726498 197.706579 
L 625.930326 199.311031 
L 629.134154 190.285078 
L 632.337981 183.192608 
L 635.541809 182.507901 
L 638.745637 168.223279 
L 641.949465 152.289429 
L 645.153292 173.268377 
L 648.35712 170.083021 
L 651.560948 182.575562 
L 654.764776 181.431444 
L 657.968603 177.633423 
L 661.172431 159.395575 
L 664.376259 136.130051 
L 667.580087 154.757922 
L 670.783914 146.357949 
L 673.987742 150.184117 
L 677.19157 145.063072 
L 680.395398 142.300041 
L 683.599225 95.280595 
L 686.803053 46.421563 
L 690.006881 120.109916 
L 693.210709 135.345072 
L 696.414536 139.059475 
L 699.618364 163.842669 
L 702.822192 139.65653 
L 706.02602 99.867641 
L 709.229847 32.610657 
L 712.433675 107.543849 
L 715.637503 126.677351 
L 718.841331 121.075901 
L 722.045158 126.528823 
L 725.248986 99.877739 
L 728.452814 61.117619 
L 731.656642 22.055886 
L 734.860469 124.823561 
" style="fill:none;stroke:#777777;stroke-dasharray:2,3.3;stroke-dashoffset:0;stroke-width:2;"/>
   </g>
   <g id="line2d_64">
    <path clip-path="url(#p10a210e264)" d="M 452.923627 206.942241 
L 456.127455 182.558031 
L 459.331283 174.255875 
L 462.535111 178.002097 
L 465.738938 198.144213 
L 468.942766 185.740848 
L 472.146594 172.316339 
L 475.350422 168.539431 
L 478.554249 170.197429 
L 481.758077 160.070458 
L 484.961905 162.335357 
L 488.165733 195.773097 
L 491.36956 184.601878 
L 494.573388 179.943675 
L 497.777216 181.834982 
L 500.981044 172.956527 
L 504.184871 144.562633 
L 507.388699 142.141565 
L 510.592527 175.143527 
L 513.796355 187.623119 
L 517.000182 182.243231 
L 520.20401 178.533174 
L 523.407838 175.736204 
L 526.611666 169.021073 
L 529.815493 176.908158 
L 533.019321 201.324949 
L 536.223149 191.999053 
L 539.426977 187.109704 
L 542.630804 190.789577 
L 545.834632 188.40121 
L 549.03846 175.833423 
L 552.242288 162.750788 
L 555.446115 180.769289 
L 558.649943 178.890578 
L 561.853771 172.626236 
L 565.057599 183.119512 
L 568.261426 179.704388 
L 571.465254 155.672639 
L 574.669082 143.658021 
L 577.87291 186.616572 
L 581.076737 163.327785 
L 584.280565 169.276394 
L 587.484393 193.062823 
L 590.688221 208.297414 
L 593.892048 196.045588 
L 597.095876 159.607425 
L 600.299704 160.216125 
L 603.503532 191.516664 
L 606.707359 188.137407 
L 609.911187 188.009398 
L 613.115015 174.709135 
L 616.318843 152.673065 
L 619.52267 146.82765 
L 622.726498 189.166225 
L 625.930326 188.798782 
L 629.134154 188.617147 
L 632.337981 181.483472 
L 635.541809 168.466823 
L 638.745637 162.157195 
L 641.949465 152.690423 
L 645.153292 171.002634 
L 648.35712 194.140599 
L 651.560948 186.045174 
L 654.764776 180.013098 
L 657.968603 172.634107 
L 661.172431 162.107818 
L 664.376259 140.979959 
L 667.580087 168.673045 
L 670.783914 181.218395 
L 673.987742 169.643414 
L 677.19157 188.273962 
L 680.395398 192.064698 
L 683.599225 191.936494 
L 686.803053 209.53811 
L 690.006881 215.183485 
L 693.210709 213.579902 
L 696.414536 211.62545 
L 699.618364 226.548389 
L 702.822192 234.319491 
L 706.02602 232.963862 
L 709.229847 243.836182 
L 712.433675 241.011954 
L 715.637503 231.096139 
L 718.841331 226.341708 
L 722.045158 227.206094 
L 725.248986 237.912798 
L 728.452814 232.520524 
L 731.656642 235.521191 
L 734.860469 240.383525 
L 738.064297 232.241414 
" style="fill:none;stroke:#339933;stroke-linecap:square;stroke-width:2;"/>
   </g>
  </g>
 </g>
 <defs>
  <clipPath id="p81e6260c5f">
   <rect height="217.44" width="304.363636" x="71.668125" y="34.5575"/>
  </clipPath>
  <clipPath id="p10a210e264">
   <rect height="217.44" width="304.363636" x="436.904489" y="34.5575"/>
  </clipPath>
 </defs>
</svg>
